<?xml version="1.0" encoding="utf-8"?>
<!-- Generator: Adobe Illustrator 24.0.2, SVG Export Plug-In . SVG Version: 6.00 Build 0)  -->
<svg version="1.1" id="Layer_1" xmlns="http://www.w3.org/2000/svg" xmlns:xlink="http://www.w3.org/1999/xlink" x="0px" y="0px"
	 viewBox="0 0 24 24" style="enable-background:new 0 0 24 24;" xml:space="preserve">
<style type="text/css">
	.st0{fill:none;}
	.st1{fill:none;stroke:#FFFFFF;stroke-miterlimit:10;}
</style>
<path class="st0" d="M0,0h24v24H0V0z"/>
<path d="M12,21.4L10.6,20C5.4,15.4,2,12.3,2,8.5C2,5.4,4.4,3,7.5,3c1.7,0,3.4,0.8,4.5,2.1C13.1,3.8,14.8,3,16.5,3
	C19.6,3,22,5.4,22,8.5c0,3.8-3.4,6.9-8.6,11.5L12,21.4z"/>
<polyline class="st1" points="0.4,8.8 2,8.8 6.2,8.8 8.3,10.9 10.3,8.9 12.4,11 14.5,9 16.4,10.9 18.5,8.8 "/>
</svg>
