<?xml version="1.0" encoding="UTF-8" standalone="no"?>
<svg
   xmlns:dc="http://purl.org/dc/elements/1.1/"
   xmlns:cc="http://creativecommons.org/ns#"
   xmlns:rdf="http://www.w3.org/1999/02/22-rdf-syntax-ns#"
   xmlns:svg="http://www.w3.org/2000/svg"
   xmlns="http://www.w3.org/2000/svg"
   xml:space="preserve"
   style="enable-background:new 0 0 24.8 24;"
   viewBox="0 0 24.8 24"
   y="0px"
   x="0px"
   id="Layer_1"
   version="1.1"><metadata
   id="metadata867"><rdf:RDF><cc:Work
       rdf:about=""><dc:format>image/svg+xml</dc:format><dc:type
         rdf:resource="http://purl.org/dc/dcmitype/StillImage" /><dc:title></dc:title></cc:Work></rdf:RDF></metadata><defs
   id="defs865" />
<style
   id="style842"
   type="text/css">
	.st0{fill:none;}
	.st1{fill:none;stroke:#FFFFFF;stroke-miterlimit:10;}
	.st2{fill:none;stroke:#000000;stroke-miterlimit:10;}
</style>
<path
   id="path844"
   d="M0,0l24.8,0.1v24L0,24V0z"
   class="st0" />


<path
   id="path850"
   d="M-3.9,14.2"
   class="st1" />


<g
   id="g876"><path
     d="M12,21.4L10.6,20C5.4,15.4,2,12.3,2,8.5C2,5.4,4.4,3,7.5,3c1.7,0,3.4,0.8,4.5,2.1C13.1,3.8,14.8,3,16.5,3  C19.6,3,22,5.4,22,8.5c0,3.8-3.4,6.9-8.6,11.5L12,21.4z"
     id="path846" /><path
     class="st1"
     d="M2,8.8h4.2l2.1,2.1l2-2l2.1,2.1l2.1-2l1.9,1.9l2.1-2.1H22"
     id="path848" /><line
     class="st2"
     x1="0.4"
     y1="8.8"
     x2="2"
     y2="8.8"
     id="line852" /><line
     class="st2"
     x1="22"
     y1="8.8"
     x2="23.2"
     y2="8.8"
     id="line854" /><g
     id="g860">
	<g
   id="g858">
		<path
   d="M23.1,8.8c-0.4-0.4-0.6-1.2-0.6-1.8c0.6,0.7,1.3,1.4,2.1,1.8c-0.9,0.3-1.6,1-2.1,1.8C22.5,10,22.6,9.2,23.1,8.8z"
   id="path856" />
	</g>
</g></g>
</svg>