<?xml version="1.0" encoding="utf-8"?>
<!-- Generator: Adobe Illustrator 24.0.2, SVG Export Plug-In . SVG Version: 6.00 Build 0)  -->
<svg version="1.1" id="Layer_1" xmlns="http://www.w3.org/2000/svg" xmlns:xlink="http://www.w3.org/1999/xlink" x="0px" y="0px"
	 viewBox="0 0 24.8 24" style="enable-background:new 0 0 24.8 24;" xml:space="preserve">
<style type="text/css">
	.st0{fill:none;stroke:#000000;stroke-width:0.5;stroke-miterlimit:10;}
</style>
<path class="st0" d="M12,21.4L10.6,20C5.4,15.4,2,12.3,2,8.5C2,5.4,4.4,3,7.5,3c1.7,0,3.4,0.8,4.5,2.1C13.1,3.8,14.8,3,16.5,3
	C19.6,3,22,5.4,22,8.5c0,3.8-3.4,6.9-8.6,11.5L12,21.4z M2,8.8h4.2l2.1,2.1l2-2l2.1,2.1l2.1-2l1.9,1.9l2.1-2.1H22 M-3.9,14.2
	 M0.4,8.8H2 M22,8.8h1.2 M23.5,8.8c-0.2-0.2-0.3-0.6-0.3-0.9c0.3,0.3,0.6,0.7,1,0.9c-0.4,0.1-0.8,0.5-1,0.9
	C23.2,9.4,23.3,9,23.5,8.8z"/>
</svg>
